<?xml version="1.0" encoding="utf-8"?>
<!-- Generator: Adobe Illustrator 21.1.0, SVG Export Plug-In . SVG Version: 6.00 Build 0)  -->
<svg version="1.1" id="Layer_2" xmlns="http://www.w3.org/2000/svg" xmlns:xlink="http://www.w3.org/1999/xlink" x="0px" y="0px"
	 viewBox="0 0 1632 2502" style="enable-background:new 0 0 1632 2502;" xml:space="preserve">
<style type="text/css">
	.st0{fill:none;stroke:#00B3BC;stroke-width:3;stroke-miterlimit:10;}
</style>
<polygon class="st0" points="675.3,95.5 675.3,220.8 838,220.8 838,197.5 850.8,197 852,68.3 "/>
<polygon class="st0" points="581,111.3 582,220.8 670.3,220.8 670.3,98.3 "/>
<polygon class="st0" points="198.8,97 198.8,219.5 276.3,219.5 275.3,97 "/>
<polygon class="st0" points="279.7,97.8 279.7,219.5 354.7,219.5 354.7,98.7 "/>
<polygon class="st0" points="195.7,97.8 195.7,219.5 128.5,219.5 128.5,204.5 118.7,204.5 118.7,97.8 "/>
<polygon class="st0" points="128,272.8 128,284.5 118.8,284.5 118.8,356 234.2,356 234.2,272.8 "/>
<polygon class="st0" points="278.2,273.7 278.2,356 394,355.3 394,283.3 370.3,283.2 370,272.8 "/>
<polygon class="st0" points="397.8,283 397.8,380.8 470,380.2 470,335.2 473.8,335.5 473.8,362.5 519,362.7 519,283 "/>
<polygon class="st0" points="397.8,396.5 397.8,476 416.5,476 416.5,493.8 506.8,493.8 506.8,488.2 519,488.3 519,414 474.2,413.8 
	474,441.8 469.3,441.8 469.7,396.5 "/>
<rect x="278.2" y="360.5" class="st0" width="115.8" height="82.5"/>
<rect x="118.8" y="360.5" class="st0" width="115.3" height="82.5"/>
<rect x="121.2" y="459.3" class="st0" width="113" height="81.3"/>
<polygon class="st0" points="428.8,499 428.8,582.5 519,582.5 519,516.5 488.5,516.7 488.2,499 "/>
<rect x="342.2" y="519.8" class="st0" width="82" height="64"/>
<polygon class="st0" points="342.2,588.3 342.2,678.5 443.3,678.5 443.3,630.7 519,630.8 519,588.3 "/>
<polygon class="st0" points="121.2,544 121.2,717.5 127.5,717.5 127.5,723.5 383.2,723.5 383.2,682 337.8,681.8 338,544 "/>
<polygon class="st0" points="383.2,729.3 383.2,768.8 338.5,768.8 338.3,997.8 128.5,999 128.5,992.8 120.3,992.5 120.3,729.3 "/>
<polygon class="st0" points="342.8,777.5 342.8,905.3 453,905.3 453,884 520.5,883.5 520.5,819.5 417.8,818.8 417.5,772.8 
	371.5,772.8 371.8,778 "/>
<polygon class="st0" points="337.3,1003 128,1003 128,1008.3 120.3,1008.3 120.3,1267.5 128,1267.5 127.8,1273.5 384.5,1273.5 
	384.5,1233.3 337.8,1233.5 "/>
<polygon class="st0" points="342.8,909.5 343,1229 433.3,1229 433.3,1183.3 522,1183 522,1116 506.8,1115.5 506.5,887.8 
	457.8,887.8 457.5,910 "/>
<polygon class="st0" points="120.3,1284.7 120.3,1542.5 129,1542.5 129,1548.3 331,1548.3 331,1527.3 338,1527.3 338,1318.3 
	384.5,1318.8 384.5,1278.8 382,1278.8 382.3,1277.5 128.3,1277.5 128.3,1284.3 "/>
<polygon class="st0" points="342.3,1327 342,1548.3 504.5,1548.3 504.5,1502.5 520.3,1502.3 520.3,1375.3 442.8,1375 442,1323.3 
	371.5,1323.3 371.5,1327 "/>
<polygon class="st0" points="120.3,1559 120.3,1771.7 423.3,1771.7 423.3,1656.7 520.3,1656.5 520.3,1607.8 427,1607.8 
	426.5,1552.5 120.3,1552.5 "/>
<polygon class="st0" points="729,224 729,312.2 851,312.2 851,298.7 859.2,298.3 859.2,236.3 850.5,236.2 850.5,224 "/>
<polygon class="st0" points="729,315.2 729,403 851.3,403 851.3,389.7 859.2,389.7 859.2,328.8 850.5,328.8 850.5,315.2 "/>
<polygon class="st0" points="729,407.2 729,489 742.2,489 742.2,495 842.3,495 842.3,489.3 851,489.3 851,482.3 859.2,482.7 
	859.2,420.3 850,420.3 850.3,407.2 "/>
<polygon class="st0" points="729,505.3 729,587.3 851.2,587.3 851.2,573.8 859.2,574 859.2,512 850.3,512 850.3,505.3 842.5,505.3 
	842.3,498.8 742.5,498.8 742.7,505.2 "/>
<polygon class="st0" points="729,590.8 729,666.7 742.2,666.7 742.2,680 842.3,680 842.3,665.3 859.2,665.5 859.2,604 850.3,604 
	850.2,590.8 "/>
<polygon class="st0" points="729,785.8 729,862.3 851,862.3 851,847.2 859.7,847.2 859.7,787.2 842.2,787 842,773 742.3,773 
	742.3,786 "/>
<polygon class="st0" points="729,866.2 729,953.3 851,953.3 851,939.8 859.7,940 859.7,878.5 850.8,878.5 850.7,866.2 "/>
<polygon class="st0" points="729,957.2 729,1039.2 742.2,1039.2 742.2,1045.3 842.2,1045.3 842.2,1039 851,1039 851,1032.2 
	859.7,1032.3 859.7,970.5 849.8,970.3 849.8,957.2 "/>
<polygon class="st0" points="729,1055.2 729,1136.2 850.5,1136.2 850.5,1123.8 859.7,1123.8 859.7,1062.3 850.3,1062.5 
	850.3,1055.2 842,1055.2 841.7,1049.3 741.8,1049.3 741.8,1054.8 "/>
<polygon class="st0" points="729,1141 729,1217 742.3,1217 742.3,1230 842.3,1230 842.3,1214.5 859.7,1214.5 859.7,1153.3 
	850.5,1153.5 850.2,1141 "/>
<polygon class="st0" points="729.5,1336.5 729.5,1411.8 850.7,1411.8 850.7,1397.8 858.8,1398 858,1336.5 842.3,1336.5 
	842.2,1323.3 742.7,1323.3 742.5,1336 "/>
<polygon class="st0" points="729.5,1416.3 729.5,1503 851.3,1503 851.3,1489.3 858.8,1489.3 858.8,1429.2 850.2,1429 850.3,1416.3 
	"/>
<polygon class="st0" points="729.5,1507.3 729.5,1589.2 742.3,1589.2 742.3,1595.2 842.2,1595.2 842.2,1589 851,1589.3 851,1582.2 
	858.8,1581.8 858.8,1520.5 849.8,1520.5 850,1507.3 "/>
<polygon class="st0" points="729.5,1605.2 729.5,1687 850.8,1687 850.8,1672.5 858.8,1672.3 858.8,1612 850.7,1612.2 850.5,1605.2 
	841.7,1605.2 841.5,1599 742.3,1599 742.3,1605.3 "/>
<polygon class="st0" points="729.5,1690.5 729.5,1772 742.2,1772 742.2,1782 841.3,1782 841.3,1772.2 850.7,1772.3 850.7,1764.8 
	858.8,1764.8 858.8,1703.5 849.8,1703.5 850,1690.5 "/>
<polygon class="st0" points="230.2,1894.5 230.2,1987.8 220.5,1987.8 220.3,2244.8 447,2244.8 447,2235 487,2234.7 487,2166 
	505.2,2165.7 505.2,1948.8 487.5,1948.8 487.3,1883.3 252.5,1883.3 252.5,1894.5 "/>
<polygon class="st0" points="730,1885.8 730,1983.8 829,1983.8 829,1876.5 810.5,1876.5 810.5,1865.5 760.8,1865.5 760.8,1876 
	742.5,1876.3 742.5,1885.5 "/>
<polygon class="st0" points="833.3,1876.5 833.3,1983.8 921.8,1983 921.8,1876.5 901.7,1876.5 901.8,1869.3 852.7,1869.3 
	852.7,1876.3 "/>
<polygon class="st0" points="925,1876.7 925,1983.8 1012.2,1983.8 1012.2,1885.5 1000.2,1885.2 1000,1876.7 993.5,1876.7 
	993.5,1869.3 944.7,1869.3 944.8,1876.2 "/>
<polygon class="st0" points="1016.2,1875.8 1016.2,1983.8 1104.2,1983.8 1104.2,1875.8 1085,1875.8 1085,1869.3 1035.3,1869.3 
	1035.3,1876 "/>
<polygon class="st0" points="1108.3,1876.3 1108.3,1983.8 1196.8,1983.8 1195.8,1884.8 1189.8,1885 1189.3,1876.3 1176.3,1876.3 
	1176.5,1869.3 1127.3,1869.3 1127.3,1876 "/>
<polygon class="st0" points="1199.8,1885.5 1199.8,1983.8 1287.2,1983.8 1287.2,1875.8 1268.2,1875.8 1267.7,1869.3 1219,1869.3 
	1218.8,1876.5 1204.8,1876.8 1204.8,1885 "/>
<polygon class="st0" points="1291.3,1876 1291.3,1983.8 1379,1983.8 1379,1876 1360,1876 1360,1869.3 1310,1869.3 1310,1876.5 "/>
<polygon class="st0" points="1383.7,1876 1383.7,1983.8 1471.8,1983.8 1471.8,1885.3 1465,1885.2 1464.8,1876 1451.3,1876 
	1451,1869.3 1402,1869.3 1401.8,1876.7 "/>
<polygon class="st0" points="1474.5,1885.3 1475.2,1984.7 1569.8,1983.8 1582.5,1876.5 1564.2,1876.5 1564,1883.8 1546.8,1884 
	1547,1876.5 1544,1876.5 1543,1869.3 1494,1869.3 1494,1876.3 1479.8,1876.8 1479.7,1885.3 "/>
<polygon class="st0" points="738.5,2047.5 738.5,2131.5 828.8,2131.5 829.5,2046.8 "/>
<polygon class="st0" points="833,2046.8 833,2167 920.5,2167 920.5,2062.5 873.7,2062.3 873.3,2046.8 "/>
<polygon class="st0" points="1050,2046.8 981.5,2046.8 981.5,2167 1077,2167 1077,2095.3 1030.8,2095.3 1030.7,2090.3 
	1081.8,2090.3 1081.8,2046.8 "/>
<polygon class="st0" points="1086.2,2046.8 1086.2,2090.8 1138.3,2090.8 1138.3,2095.2 1091.5,2095.2 1091.7,2167 1187.5,2167 
	1187.5,2046.8 "/>
<polygon class="st0" points="1194.7,2046.8 1194.7,2136.2 1205,2136.2 1205,2167 1371.5,2167 1371.5,2046.8 "/>
<polygon class="st0" points="1376.8,2046.8 1376.8,2167 1454.7,2167 1454.7,2059.8 1446.8,2059.8 1447,2046.8 "/>
<polygon class="st0" points="924.2,2220.5 924.2,2318.3 930.7,2318.3 930.7,2329.5 943.8,2329.5 943.8,2336 993.2,2336 
	993.2,2328.7 1012.5,2328.7 1013.2,2220.5 "/>
<polygon class="st0" points="729.2,2220.5 729.2,2318.7 742.2,2318.7 742.2,2329 760,2329 760,2336 810.2,2336 810.2,2328.8 
	831.3,2328.7 831.3,2220.5 "/>
<polygon class="st0" points="833,2220.5 833,2329.1 852.1,2329.1 852.1,2336 900.9,2336 900.9,2328.9 914.5,2328.9 914.5,2318.5 
	921,2318.5 921,2219.3 "/>
<polygon class="st0" points="1016.3,2220.5 1016.3,2328.7 1035.3,2328.7 1035.3,2336 1085.7,2336 1085.7,2329.2 1103.8,2329.3 
	1103.8,2220.5 "/>
<polygon class="st0" points="1108.3,2220.5 1108.3,2329.2 1127.3,2329.2 1127.3,2336 1176.8,2336 1176.8,2329.2 1190,2329.3 
	1190,2319.2 1196.7,2319.2 1196.7,2220.5 "/>
<polygon class="st0" points="1199.7,2220.5 1199.7,2318.7 1205,2318.7 1205,2329 1219.2,2329 1219.2,2336 1268.7,2336 
	1268.7,2329.2 1287.3,2329 1287.3,2220.5 "/>
<polygon class="st0" points="1256.8,2171.5 1256.8,2217 1291.2,2217 1291.2,2329.2 1310.8,2329.2 1310.8,2336 1360.5,2336 
	1360.5,2329.3 1370.7,2329.5 1370.7,2318.8 1385.3,2318.8 1385.3,2329 1402,2329.7 1402,2336 1417.5,2336 1417.5,2289.7 
	1410.5,2289.5 1410.3,2223.7 1424.8,2223.8 1424.8,2227.7 1441.3,2227.5 1441.3,2208.7 1454.7,2208.8 1454.7,2171.5 "/>
</svg>
