<?xml version="1.0" encoding="utf-8"?>
<!-- Generator: Adobe Illustrator 21.1.0, SVG Export Plug-In . SVG Version: 6.00 Build 0)  -->
<svg version="1.1" xmlns="http://www.w3.org/2000/svg" xmlns:xlink="http://www.w3.org/1999/xlink" x="0px" y="0px"
	 viewBox="0 0 966 1932" style="enable-background:new 0 0 966 1932;" xml:space="preserve">
<style type="text/css">
	.st0{opacity:0.4;}
	.st1{fill:none;stroke:#00B3BC;stroke-miterlimit:10;}
</style>
<g id="Layer_1" class="st0">
	<image style="overflow:visible;" width="966" height="1932" xlink:href="FF203-schematic_edit.jpg" >
	</image>
</g>
<g id="Layer_2">
	<polygon class="st1" points="105.3,111 105.3,159.5 115,159.5 115,227 123,227 123,241.8 219.8,241.8 219.8,120.5 133.8,120 
		134,111 	"/>
	<polygon class="st1" points="222.3,111 222.3,241.8 337.5,241.8 337.5,198.5 350.3,198.5 350.3,154.8 373.3,154.3 373.3,120.5 
		363.8,120.8 363.3,111 314.3,111 314.5,121 271.8,120.8 271.5,111 	"/>
	<polygon class="st1" points="123.3,295.3 123.3,306.8 114.5,306.8 114.5,313.8 105.3,313.8 105.3,362 114.3,362 114.3,379.5 
		235,379.5 235,294.3 	"/>
	<polygon class="st1" points="114.3,383 114.3,392.8 105.3,392.8 105.3,442.8 115.3,442.8 115.3,464.5 235,464.5 235,383 	"/>
	<polygon class="st1" points="280.3,383 280.3,464.5 390,464.5 388.8,383 	"/>
	<rect x="280.3" y="294.3" class="st1" width="29" height="85.3"/>
	<polygon class="st1" points="313.5,294.3 313.5,377 388.3,377 388.3,342.8 390,342.3 390,306.3 356,306.3 356,294.3 	"/>
	<polygon class="st1" points="577,133.7 577,241.8 665,241.8 665,119.3 	"/>
	<polygon class="st1" points="670.5,117.3 670.5,241.8 835,241.8 835,219 846.3,218.8 846.3,132 855.5,132.3 854,81.8 	"/>
	<polygon class="st1" points="393.3,305.5 393.3,403 465.3,403 465.3,357.3 469.8,357 469.8,384.8 515.3,384.3 514.3,305.5 	"/>
	<polygon class="st1" points="393.3,417.8 393.3,497.8 412.5,497.8 412.5,515.5 502.3,515.5 502.3,510.3 515.3,510 515.3,436.5 
		470.3,436.8 470.3,463.3 464.3,463 465,417.8 	"/>
	<polygon class="st1" points="424.3,521.8 424.3,605.3 515.3,605.3 513.8,538.8 483,538.3 483,521.8 	"/>
	<polygon class="st1" points="103.3,473.8 103,747.8 108.5,747.8 108.5,740.3 122.8,740 122.8,746.3 380.3,745.3 380.3,705 
		334,704.5 335.1,481.3 108,480.5 107.8,473.8 	"/>
	<polygon class="st1" points="337,542.3 337,701 437.3,701 437.3,653.8 515.3,652.8 515.3,609.8 418.8,609.3 418.8,542.3 	"/>
	<polygon class="st1" points="103,750.3 103,1019.8 108.3,1019.8 108.3,1015.5 122.5,1015.3 122.5,1019.8 334,1019.8 334,791 
		380.3,791.3 380.3,750.3 123.5,750.3 123.5,756 108,756.3 107.5,750.3 	"/>
	<polygon class="st1" points="337.3,799.3 337.3,961 516.5,961 514.8,841 412.5,840.8 412.5,795 366.3,795 366.3,799.8 	"/>
	<polygon class="st1" points="337.3,964.5 337.3,1093.8 484.3,1093.8 484.3,1074.3 514.8,1074.5 514.8,1031.8 500.8,1031.8 
		500,1013.8 514.8,1014 514.8,964.5 	"/>
	<polygon class="st1" points="103,1024 103,1297.5 107.8,1297.5 107.8,1290 122.3,1290.3 122.3,1295.5 378.3,1295.8 378.3,1255 
		333.8,1254.5 333.5,1024 123.3,1024 123,1031 108.3,1031 108,1024 	"/>
	<polygon class="st1" points="338.5,1099.8 338.5,1250.5 428.5,1250.5 428.5,1205 514.8,1204.8 514.8,1079.8 488.5,1079.8 
		488.5,1099.5 	"/>
	<polygon class="st1" points="103,1300.3 103,1570 108.8,1570 108.8,1565.5 122.5,1565.5 122.5,1570 325.5,1570 325.5,1550 
		334.3,1550 334.3,1341.3 378.3,1341.3 378.3,1300.3 122.8,1300.3 122.5,1306.3 108.5,1306.3 108.3,1300.3 	"/>
	<polygon class="st1" points="337,1349.5 337,1570 500.3,1570 500.3,1525.3 515.3,1525.3 515.3,1396.5 438,1396.3 437.8,1345 
		366,1345 366,1349.5 	"/>
	<polygon class="st1" points="103,1573.3 103,1756.5 115.3,1756.5 115.3,1795 417.5,1795 417.5,1679 515.3,1678.8 515.3,1580.8 
		501.8,1580.5 501.3,1573.3 123.3,1573.3 123.3,1580.5 108,1581 107.5,1573.3 	"/>
	<polygon class="st1" points="723.8,246.5 723.8,334.3 846,334.3 846,321 855.5,321.3 855.5,258.8 845.3,258.8 845.5,246.5 	"/>
	<polygon class="st1" points="723.8,337.8 723.8,425.3 846.5,425.3 846.5,412 855.5,411.5 855.5,350 846.3,350 846.3,337.8 	"/>
	<polygon class="st1" points="723.8,429.5 723.8,510.5 737.3,510.5 737.3,516.8 837,516.8 837,510.8 846,511 846,504 855.5,504 
		855.5,442.5 844.8,442.5 844.8,429.5 	"/>
	<polygon class="st1" points="723.8,527.3 723.8,609.5 846,609.5 846,596 855.5,596 855.5,534.5 845.3,534.5 845,527.3 837.8,527.3 
		837,521 737,521 737.3,527 	"/>
	<polygon class="st1" points="723.8,612.5 723.8,689.3 736.8,689.3 736.8,701.3 837.3,701.3 837.3,687.5 855.5,687.8 855.5,625.5 
		845.3,625.5 845,612.5 	"/>
	<polygon class="st1" points="724,808 724,884 845.8,884 845.8,871 854.8,871 854.8,808 837.5,808 837.3,795 737.3,795 737.5,808.3 
			"/>
	<polygon class="st1" points="724,887 724,975.3 845.5,975.3 845.5,961.3 856,961.5 854.8,900.8 846.5,900.8 846.5,887 	"/>
	<polygon class="st1" points="724,979.5 724,1060.8 737.3,1060.8 737.3,1067.5 837.8,1067.5 837.8,1061 846.5,1061 846.5,1054.8 
		854.3,1054.8 854.3,992.8 845,992.5 845,979.5 	"/>
	<polygon class="st1" points="724,1077 724,1158.8 845.5,1158.8 845.5,1145 854.3,1145.3 854.3,1083.5 845.8,1083.8 845.5,1077 
		836.8,1077 836.3,1071 737.5,1071 737.5,1076.8 	"/>
	<polygon class="st1" points="724,1162.5 724,1239 736.8,1239 736.8,1251.3 837,1251.3 837,1237.3 854.3,1237.5 854.3,1175.5 
		845.5,1175.8 845.5,1162.5 	"/>
	<polygon class="st1" points="724.5,1358.3 724.5,1433.5 845.8,1433.5 845.8,1420.3 855.3,1420.3 855.3,1358.3 837.8,1358.3 
		837.8,1345 737.3,1345 737.5,1358 	"/>
	<polygon class="st1" points="724.5,1437.3 724.5,1524.5 845.5,1524.5 845.5,1511.5 855.3,1511.8 855.3,1451.3 844.8,1451.5 
		844.3,1437.3 	"/>
	<polygon class="st1" points="724.5,1529.5 724.5,1610.8 737.5,1610.8 737.5,1617.3 837.5,1617.3 837.5,1610.8 845.5,1611 
		845.5,1604 855.3,1603.8 855.3,1542.5 845,1542.5 844.8,1529.5 	"/>
	<polygon class="st1" points="724.5,1627.3 724.5,1709 846,1709 846,1695.3 855.3,1695.3 855.3,1634.5 845.5,1634.8 845.3,1627.3 
		837,1627.3 836.5,1620.5 737,1620.5 737,1626.5 	"/>
	<polygon class="st1" points="724.5,1712.8 724.5,1795.3 737.5,1795.3 737.5,1804.3 837.5,1802.8 837.5,1795.3 846,1795 846,1787.3 
		855.3,1787.3 855.3,1726.3 846.3,1726.5 846,1712.8 	"/>
</g>
</svg>
