<?xml version="1.0" encoding="utf-8"?>
<!-- Generator: Adobe Illustrator 21.1.0, SVG Export Plug-In . SVG Version: 6.00 Build 0)  -->
<svg version="1.1" id="Layer_2" xmlns="http://www.w3.org/2000/svg" xmlns:xlink="http://www.w3.org/1999/xlink" x="0px" y="0px"
	 viewBox="0 0 1568.2 2477.5" style="enable-background:new 0 0 1568.2 2477.5;" xml:space="preserve">
<polygon class="st0" points="716.2,57 799.8,45.7 799.8,176 790.5,176 790.8,190.7 716.2,190.7 "/>
<polygon class="st0" points="628.5,69.4 712.5,56.4 712.5,190.7 628.5,190.7 "/>
<polygon class="st0" points="536.5,82.4 623.2,70 623.2,190.7 536.5,190.7 "/>
<polygon class="st0" points="681.2,471 681.2,551.3 800.4,551.3 800.4,544.8 809.7,544.8 809.7,472 791.2,471 791.2,464.8 
	694.2,464.8 693.9,470 "/>
<polygon class="st0" points="680.7,285.3 680.7,371.3 800.2,371.3 800.2,364.8 810.4,364.5 810.4,292 799.7,291.8 799.4,285.3 "/>
<polygon class="st0" points="680.7,375 680.7,455 693.7,455 693.7,461.5 791.9,461.5 791.9,453.5 810.4,453.3 809.7,381.8 
	800.2,382 800.2,375 "/>
<polygon class="st0" points="681.2,555 681.2,630.3 694.4,630.3 694.4,643 791.9,643 791.9,634.5 809.7,634.3 809.7,561.8 
	799.9,561.8 799.7,555 "/>
<polygon class="st0" points="681.2,746.8 681.2,821.5 800.2,821.5 800.2,814.5 809.7,814.5 809.7,742.8 784.1,742.8 784.1,733.5 
	693.9,733.5 693.7,747 "/>
<polygon class="st0" points="681.2,825.8 681.2,911.8 800.4,911.8 800.4,904.8 810.9,904.5 809.7,831.8 800.4,831.8 800.2,825.8 "/>
<polygon class="st0" points="681.2,915 681.2,995.5 693.4,995.5 693.4,1001.5 791.4,1001.5 791.4,994 809.7,994.5 809.7,921.8 
	799.7,921.8 799.4,915 "/>
<polygon class="st0" points="681.2,1011 681.2,1091.3 800.4,1091.3 800.4,1084.3 809.7,1084 809.7,1012 791.9,1011 791.7,1005.3 
	693.9,1005.3 693.9,1010.8 "/>
<polygon class="st0" points="681.2,1095 681.2,1169.3 693.4,1169.3 693.4,1181.5 791.4,1181.5 791.4,1174.3 809.7,1174.3 
	809.7,1102.5 800.7,1102.3 799.7,1095 "/>
<polygon class="st0" points="681.2,1287.3 681.2,1361 799.7,1361 799.7,1354.8 809.9,1354.8 809.9,1282 791.4,1282 790.9,1274 
	693.4,1274 693.7,1286.3 "/>
<polygon class="st0" points="681.2,1364.8 681.2,1451 800.2,1451 800.2,1444 809.9,1444.5 809.9,1372.8 800.2,1372.3 799.9,1364.8 
	"/>
<polygon class="st0" points="681.2,1455.3 681.2,1535.3 693.9,1535.3 693.9,1541.5 791.9,1541.5 791.9,1534.5 809.9,1534.5 
	809.9,1462.5 800.9,1462.5 800.7,1455.3 "/>
<polygon class="st0" points="681.2,1550.8 681.2,1631 800.2,1631 800.2,1624.8 809.9,1625 809.9,1552.3 791.2,1550.8 790.9,1545.3 
	693.9,1545.3 693.9,1550 "/>
<polygon class="st0" points="681.2,1634.8 681.2,1715 693.7,1715 693.7,1724.3 791.7,1724.3 791.7,1714 809.9,1713.8 809.9,1642.3 
	800.7,1642.3 799.7,1634.8 "/>
<rect x="246.8" y="125.7" class="st0" width="21.7" height="65"/>
<rect x="129.2" y="240" class="st0" width="71.7" height="171.7"/>
<polygon class="st0" points="204.5,244.4 204.5,411.7 316.2,411.7 316.2,409.4 326.2,409.4 326.2,244.4 "/>
<polygon class="st0" points="331.5,254 331.5,349.7 427.5,349.7 427.5,303.7 430.5,303.7 430.5,332 474.5,332.4 474.5,260 
	458.8,259.7 458.5,254 "/>
<rect x="431.2" y="336.4" class="st0" width="43.3" height="40"/>
<polygon class="st0" points="331.5,364.4 331.5,442.4 374.5,442.4 374.5,459 462.5,459 462.5,454.4 474.5,454.7 474.5,381.4 
	431.2,381.7 431.2,409 426.2,408.7 426.2,364.4 "/>
<polygon class="st0" points="331.5,486.7 331.5,550 408.5,550 408.5,547 474.5,547.4 474.5,511.4 459.8,511.4 459.5,465.7 
	386.5,465.7 386.5,486.7 "/>
<polygon class="st0" points="331.5,572 331.5,641.4 408.5,641.4 408.5,573.4 "/>
<polygon class="st0" points="474.5,552 412.8,553.4 412.8,625 420.2,625 419.8,641.4 462.8,641.4 462.2,623.4 474.5,623.4 "/>
<polygon class="st0" points="91.2,424.4 91.2,427.7 72.5,427.7 72.5,678 91.2,678 91.2,686.4 343.5,686.4 343.5,647 326.2,646.7 
	326.2,426.4 315.2,426 315.2,424.4 "/>
<polygon class="st0" points="91.2,691 91.2,696.7 72.5,696.7 72.5,948 91.2,948 91.2,956.4 297.2,956.4 297.2,730.7 343.5,730.4 
	343.5,691 "/>
<polygon class="st0" points="300.8,738 301.2,1011 461.5,1011 461.5,733.7 329.5,733.7 329.8,737.7 "/>
<rect x="302.2" y="1016" class="st0" width="159.3" height="166.3"/>
<polygon class="st0" points="90.8,961 90.8,967.7 72.5,967.7 72.5,1218.4 90.8,1218.4 90.8,1225.7 343.5,1225.7 343.5,1186.7 
	296.8,1185.4 296.8,961 "/>
<polygon class="st0" points="72.5,1238.8 72.5,1489 91.2,1489 91.2,1496.4 290.8,1496.4 290.8,1474.7 297.2,1474.7 297.2,1269.4 
	343.5,1269.4 343.5,1231.4 91.5,1231.4 91.2,1238.8 "/>
<polygon class="st0" points="301.5,1278 301.5,1530 462.2,1530 462.2,1274.4 329.5,1274.4 329.5,1278 "/>
<polygon class="st0" points="90.5,1501 90.5,1507.7 72.5,1507.7 72.5,1668.4 81.5,1668.4 81.5,1715.7 322.8,1715.7 322.8,1708.4 
	381.8,1709 381.8,1581.4 479.2,1580.7 479.2,1533.7 296.8,1533.4 297.2,1501 "/>
<rect x="386.2" y="1586.4" class="st0" width="88.7" height="52.3"/>
<polygon class="st0" points="37.5,1826 38.2,2251 451.2,2258.4 451.2,2174 463.5,2174 463.5,1905 448.2,1904 447.8,1818 "/>
<polygon class="st0" points="951.5,1827 951.5,1983 946.8,1983 946.8,1997.4 951.5,1997.4 951.5,2085 696.8,2085 696.8,2024 
	681.8,2024.4 681.8,1876.8 697.9,1877 697.4,1817 946.4,1817 946.9,1826.5 "/>
<polygon class="st0" points="961.2,1983 961.2,1997 956.5,1997 956.5,2085 999.8,2085 999.8,2032 1004.8,2031.7 1004.8,2077.4 
	1076.8,2076.7 1076.8,1983 "/>
<polygon class="st0" points="1081.2,1983 1081.2,2076 1125.8,2076 1125.8,2070.4 1152.2,2070.7 1152.2,2031.7 1156.5,2031.4 
	1156.5,2085 1201.5,2085 1201.5,1983 "/>
<polygon class="st0" points="956.5,1826.4 956.5,1975 1205.8,1975 1205.8,2089 1248.2,2089 1248.2,1817 962.2,1817 962.2,1826.4 "/>
<polygon class="st0" points="1252.2,1817 1252.2,2089 1299.5,2089 1299.5,2046.7 1385.8,2046.4 1385.8,1977 1493.8,1976.7 
	1517.5,1817 "/>
<polygon class="st0" points="715.8,2156.4 690.5,2156.4 690.5,2190.7 681.8,2190.7 681.8,2252.7 693.8,2252.7 693.8,2261.4 
	711.8,2261.4 711.8,2270.4 760.2,2270.4 760.2,2261.4 779.5,2261.4 779.5,2156.4 "/>
<polygon class="st0" points="782.5,2156.4 782.5,2261.7 801.2,2261.7 801.2,2270.4 849.2,2270.4 849.2,2260.4 863.2,2260.7 
	863.2,2252.4 869.2,2252 869.2,2156.4 "/>
<polygon class="st0" points="871.8,2156.4 871.8,2252.4 878.5,2252.4 878.5,2261.7 891.8,2261.7 891.8,2269 940.5,2269 
	940.5,2260.7 959.5,2261 959.5,2156.4 "/>
<polygon class="st0" points="962.5,2156.4 962.5,2261.7 981.8,2261.7 981.8,2269 1030.2,2270.4 1030.2,2260.7 1049.2,2260.4 
	1049.2,2156.4 "/>
<polygon class="st0" points="1052.8,2156.4 1052.8,2261.4 1071.5,2261.4 1071.5,2270.4 1120.5,2270.4 1120.5,2261.7 1133.8,2261.4 
	1133.8,2252.4 1138.5,2252 1138.5,2156.4 "/>
<polygon class="st0" points="1143.8,2156.4 1143.8,2251 1148.8,2251 1148.8,2260.7 1162.8,2260.7 1162.8,2269 1210.5,2270.4 
	1210.5,2261.4 1252.2,2261.7 1252.2,2270.4 1299.2,2270.4 1299.2,2261 1311.2,2260.7 1311.2,2252.7 1324.8,2252.4 1324.8,2262 
	1349.8,2262.4 1349.8,2156.4 "/>
</svg>
